<svg width="60" height="60" viewBox="0 0 98 98" fill="none" xmlns="http://www.w3.org/2000/svg">
<g clip-path="url(#clip0_505_36)">
<rect width="98" height="98" rx="49" fill="white"/>
<path d="M98 49C98 76.062 76.062 98 49 98C21.938 98 0 76.062 0 49C0 21.938 21.938 0 49 0C76.062 0 98 21.938 98 49Z" fill="url(#paint0_linear_505_36)"/>
<path d="M89 49C89 71.0914 70.8675 89 48.5 89C26.1325 89 8 71.0914 8 49C8 26.9086 26.1325 9 48.5 9C70.8675 9 89 26.9086 89 49Z" fill="url(#paint1_linear_505_36)"/>
<ellipse cx="48" cy="49" rx="38" ry="36" fill="#D9D9D9"/>
<ellipse cx="47.5" cy="49" rx="34.5" ry="34" fill="#171716"/>
<g filter="url(#filter0_d_505_36)">
<path d="M25.6592 37.8428C25.486 37.0088 25.167 36.3617 24.7021 35.9014C24.2419 35.4411 23.6882 35.2109 23.041 35.2109C22.4076 35.2109 21.9154 35.3613 21.5645 35.6621C21.2181 35.9629 21.0449 36.3639 21.0449 36.8652C21.0449 37.1432 21.07 37.3734 21.1201 37.5557C21.1702 37.738 21.2728 37.9157 21.4277 38.0889C21.5827 38.2575 21.8083 38.4079 22.1045 38.54C22.4007 38.6676 22.7881 38.7907 23.2666 38.9092C23.5264 38.973 23.752 39.0322 23.9434 39.0869C24.1393 39.1416 24.3535 39.2168 24.5859 39.3125C24.8229 39.4082 25.0257 39.5107 25.1943 39.6201C25.3675 39.7295 25.5384 39.8662 25.707 40.0303C25.8802 40.1898 26.0192 40.3675 26.124 40.5635C26.2334 40.7594 26.32 40.9919 26.3838 41.2607C26.4521 41.5251 26.4863 41.8145 26.4863 42.1289C26.4863 42.5482 26.4089 42.9355 26.2539 43.291C26.099 43.6419 25.8962 43.9382 25.6455 44.1797C25.3949 44.4212 25.1055 44.6263 24.7773 44.7949C24.4492 44.9635 24.1165 45.0866 23.7793 45.1641C23.4421 45.2415 23.1071 45.2803 22.7744 45.2803C21.7627 45.2803 20.6849 45.0182 19.541 44.4941C19.5638 44.002 19.5752 43.6989 19.5752 43.585C19.5752 42.8421 19.5137 42.1016 19.3906 41.3633C19.4408 41.3314 19.4909 41.3154 19.541 41.3154C19.6048 41.3154 19.6618 41.3314 19.7119 41.3633C19.8076 41.9512 19.9648 42.4707 20.1836 42.9219C20.4069 43.373 20.6621 43.7308 20.9492 43.9951C21.2363 44.2549 21.5326 44.4508 21.8379 44.583C22.1478 44.7106 22.46 44.7744 22.7744 44.7744C23.4899 44.7744 24.0391 44.5898 24.4219 44.2207C24.8092 43.847 25.0029 43.3548 25.0029 42.7441C25.0029 42.1289 24.8594 41.6663 24.5723 41.3564C24.2897 41.042 23.7474 40.7868 22.9453 40.5908C21.9427 40.3402 21.1589 39.971 20.5938 39.4834C20.0332 38.9912 19.7529 38.3418 19.7529 37.5352C19.7529 37.1113 19.8213 36.7331 19.958 36.4004C20.0993 36.0632 20.2793 35.7943 20.498 35.5938C20.7214 35.3887 20.9811 35.2201 21.2773 35.0879C21.5736 34.9512 21.8652 34.8577 22.1523 34.8076C22.444 34.7529 22.7402 34.7256 23.041 34.7256C23.9434 34.7256 24.8822 34.9352 25.8574 35.3545C25.8301 35.6234 25.8164 35.9036 25.8164 36.1953C25.8164 36.8789 25.8711 37.4281 25.9805 37.8428C25.9212 37.8656 25.8711 37.877 25.8301 37.877C25.7845 37.877 25.7275 37.8656 25.6592 37.8428ZM27.7783 35.1699C28.6442 35.0879 29.4121 34.901 30.082 34.6094C30.2051 34.6595 30.2848 34.721 30.3213 34.7939V40.0439C30.7725 39.6611 31.1963 39.3558 31.5928 39.1279C31.9893 38.9001 32.3926 38.7861 32.8027 38.7861C33.3177 38.7861 33.6846 38.932 33.9033 39.2236C34.1221 39.5153 34.236 39.971 34.2451 40.5908L34.2998 44.0635C34.3044 44.182 34.3385 44.2845 34.4023 44.3711C34.4707 44.4531 34.5664 44.5169 34.6895 44.5625C34.8125 44.6081 34.915 44.6423 34.9971 44.665C35.0791 44.6833 35.1862 44.7015 35.3184 44.7197C35.3411 44.8337 35.3525 44.8952 35.3525 44.9043C35.3525 44.9271 35.3411 44.9727 35.3184 45.041C34.7305 45.0137 34.195 45 33.7119 45C33.2243 45 32.6865 45.0137 32.0986 45.041C32.0804 44.9681 32.0713 44.9134 32.0713 44.877C32.0713 44.8451 32.0804 44.7926 32.0986 44.7197C32.2171 44.7015 32.3151 44.6833 32.3926 44.665C32.4746 44.6423 32.5658 44.6081 32.666 44.5625C32.7708 44.5169 32.8483 44.4531 32.8984 44.3711C32.9531 44.2845 32.9805 44.182 32.9805 44.0635L32.9941 40.8164C32.9941 39.9915 32.748 39.5791 32.2559 39.5791C31.7956 39.5791 31.1507 39.8776 30.3213 40.4746C30.3395 42.3704 30.3577 43.5667 30.376 44.0635C30.3805 44.1592 30.4079 44.2458 30.458 44.3232C30.5127 44.3962 30.5719 44.4554 30.6357 44.501C30.6995 44.542 30.7861 44.5807 30.8955 44.6172C31.0049 44.6491 31.0892 44.6719 31.1484 44.6855C31.2122 44.6947 31.2965 44.7061 31.4014 44.7197C31.4287 44.7744 31.4424 44.8314 31.4424 44.8906C31.4424 44.9499 31.4287 45 31.4014 45.041C30.7998 45.0137 30.2165 45 29.6514 45C29.0954 45 28.5166 45.0137 27.915 45.041C27.8968 44.9681 27.8877 44.918 27.8877 44.8906C27.8877 44.8678 27.8968 44.8109 27.915 44.7197C28.0654 44.7015 28.1862 44.6833 28.2773 44.665C28.373 44.6423 28.4915 44.6081 28.6328 44.5625C28.7786 44.5169 28.888 44.4531 28.9609 44.3711C29.0339 44.2845 29.0726 44.182 29.0771 44.0635C29.0954 43.6123 29.1045 42.6029 29.1045 41.0352C29.1045 40.3105 29.1022 39.3239 29.0977 38.0752C29.0931 36.8265 29.0908 36.0586 29.0908 35.7715C28.8311 35.6211 28.3936 35.5277 27.7783 35.4912C27.7555 35.432 27.7441 35.3773 27.7441 35.3271C27.7441 35.2816 27.7555 35.2292 27.7783 35.1699ZM41.5869 41.377H37.8613C37.8431 41.6504 37.834 41.8919 37.834 42.1016C37.8477 42.7806 38.0459 43.3252 38.4287 43.7354C38.8115 44.141 39.3242 44.3438 39.9668 44.3438C40.14 44.3438 40.3018 44.3255 40.4521 44.2891C40.6025 44.248 40.7256 44.2025 40.8213 44.1523C40.9215 44.1022 41.0241 44.0293 41.1289 43.9336C41.2337 43.8379 41.3089 43.7627 41.3545 43.708C41.4046 43.6488 41.4707 43.5622 41.5527 43.4482C41.6348 43.3298 41.6895 43.2546 41.7168 43.2227C41.8262 43.2454 41.915 43.2956 41.9834 43.373C41.7555 43.9837 41.4023 44.4417 40.9238 44.7471C40.4453 45.0479 39.9258 45.1982 39.3652 45.1982C39.0872 45.1982 38.8161 45.1618 38.5518 45.0889C38.292 45.0205 38.0391 44.9066 37.793 44.7471C37.5469 44.5876 37.3327 44.3916 37.1504 44.1592C36.9681 43.9222 36.8223 43.6283 36.7129 43.2773C36.6035 42.9219 36.5488 42.5299 36.5488 42.1016C36.5488 41.14 36.8428 40.347 37.4307 39.7227C38.0186 39.0983 38.7409 38.7861 39.5977 38.7861C39.9759 38.7861 40.304 38.8408 40.582 38.9502C40.8646 39.055 41.0833 39.1986 41.2383 39.3809C41.3978 39.5632 41.514 39.7637 41.5869 39.9824C41.6644 40.1966 41.7031 40.4268 41.7031 40.6729C41.7031 40.9007 41.6644 41.1354 41.5869 41.377ZM39.4336 39.2305C39.1191 39.2305 38.8206 39.3695 38.5381 39.6475C38.2601 39.9255 38.0596 40.347 37.9365 40.9121H40.3975C40.443 40.7389 40.4658 40.5885 40.4658 40.4609C40.4658 40.1055 40.3838 39.8115 40.2197 39.5791C40.0557 39.3467 39.7936 39.2305 39.4336 39.2305ZM43.0635 39.374C43.9476 39.2829 44.7178 39.096 45.374 38.8135C45.488 38.859 45.5677 38.9183 45.6133 38.9912V40.167C45.7819 39.848 46.0326 39.5381 46.3652 39.2373C46.7025 38.9365 47.0534 38.7861 47.418 38.7861C47.6914 38.7861 47.9124 38.8682 48.0811 39.0322C48.2542 39.1917 48.3408 39.4128 48.3408 39.6953C48.3408 39.9642 48.2611 40.1738 48.1016 40.3242C47.9421 40.4746 47.7415 40.5498 47.5 40.5498C47.2767 40.5498 47.0921 40.4792 46.9463 40.3379C46.805 40.1921 46.7275 40.0007 46.7139 39.7637C46.5225 39.8457 46.3037 40.028 46.0576 40.3105C45.8161 40.5931 45.668 40.8734 45.6133 41.1514C45.6133 42.1676 45.6315 43.1383 45.668 44.0635C45.6725 44.182 45.7158 44.2845 45.7979 44.3711C45.8799 44.4531 46.0007 44.5169 46.1602 44.5625C46.3197 44.6081 46.4518 44.6423 46.5566 44.665C46.6615 44.6833 46.7982 44.7015 46.9668 44.7197C46.9941 44.7744 47.0078 44.8314 47.0078 44.8906C47.0078 44.9362 46.9941 44.9863 46.9668 45.041C46.2832 45.0137 45.6064 45 44.9365 45C44.3805 45 43.8018 45.0137 43.2002 45.041C43.182 44.9681 43.1729 44.918 43.1729 44.8906C43.1729 44.8678 43.182 44.8109 43.2002 44.7197C43.3506 44.7015 43.4736 44.6833 43.5693 44.665C43.665 44.6423 43.7835 44.6081 43.9248 44.5625C44.0661 44.5169 44.1732 44.4531 44.2461 44.3711C44.319 44.2845 44.3577 44.182 44.3623 44.0635C44.3805 43.6123 44.3896 43.0654 44.3896 42.4229C44.3896 42.2087 44.3874 41.8441 44.3828 41.3291C44.3783 40.8141 44.376 40.363 44.376 39.9756C44.1162 39.8161 43.6787 39.7227 43.0635 39.6953C43.0452 39.6224 43.0361 39.5654 43.0361 39.5244C43.0361 39.4971 43.0452 39.4469 43.0635 39.374ZM57.3232 44.7197C57.4372 44.7015 57.5306 44.6833 57.6035 44.665C57.681 44.6423 57.7653 44.6081 57.8564 44.5625C57.9476 44.5169 58.016 44.4531 58.0615 44.3711C58.1071 44.2845 58.1299 44.182 58.1299 44.0635L58.1436 40.8164C58.1436 39.9915 57.8975 39.5791 57.4053 39.5791C57.1592 39.5791 56.8926 39.6566 56.6055 39.8115C56.3184 39.9665 55.9743 40.1989 55.5732 40.5088V40.5908L55.6279 44.0635C55.6325 44.182 55.6667 44.2845 55.7305 44.3711C55.7988 44.4531 55.8945 44.5169 56.0176 44.5625C56.1406 44.6081 56.2432 44.6423 56.3252 44.665C56.4072 44.6833 56.5143 44.7015 56.6465 44.7197C56.6647 44.8109 56.6738 44.8724 56.6738 44.9043C56.6738 44.9408 56.6647 44.9863 56.6465 45.041C56.0586 45.0137 55.5231 45 55.04 45C54.598 45 54.083 45.0137 53.4951 45.041C53.4769 44.9681 53.4678 44.9134 53.4678 44.877C53.4678 44.8451 53.4769 44.7926 53.4951 44.7197C53.609 44.7015 53.7048 44.6833 53.7822 44.665C53.8597 44.6423 53.944 44.6081 54.0352 44.5625C54.1263 44.5169 54.1947 44.4531 54.2402 44.3711C54.2858 44.2845 54.3086 44.182 54.3086 44.0635L54.3223 40.8164C54.3223 39.9915 54.0762 39.5791 53.584 39.5791C53.3379 39.5791 53.0758 39.6543 52.7979 39.8047C52.5244 39.9551 52.1803 40.1852 51.7656 40.4951C51.7656 41.8304 51.7839 43.0199 51.8203 44.0635C51.8249 44.182 51.8568 44.2845 51.916 44.3711C51.9753 44.4531 52.0596 44.5169 52.1689 44.5625C52.2829 44.6081 52.3809 44.6423 52.4629 44.665C52.5449 44.6833 52.6475 44.7015 52.7705 44.7197C52.7979 44.7744 52.8115 44.8314 52.8115 44.8906C52.8115 44.9362 52.7979 44.9863 52.7705 45.041C52.1689 45.0137 51.6084 45 51.0889 45C50.5329 45 49.9541 45.0137 49.3525 45.041C49.3343 44.9681 49.3252 44.918 49.3252 44.8906C49.3252 44.8678 49.3343 44.8109 49.3525 44.7197C49.5029 44.7015 49.626 44.6833 49.7217 44.665C49.8174 44.6423 49.9359 44.6081 50.0771 44.5625C50.2184 44.5169 50.3255 44.4531 50.3984 44.3711C50.4714 44.2845 50.5101 44.182 50.5146 44.0635C50.5329 43.6123 50.542 43.0654 50.542 42.4229C50.542 42.2087 50.5397 41.8441 50.5352 41.3291C50.5306 40.8141 50.5283 40.363 50.5283 39.9756C50.2686 39.8161 49.8311 39.7227 49.2158 39.6953C49.1976 39.6224 49.1885 39.5654 49.1885 39.5244C49.1885 39.4971 49.1976 39.4469 49.2158 39.374C50.0999 39.2829 50.8701 39.096 51.5264 38.8135C51.6403 38.859 51.7201 38.9183 51.7656 38.9912V40.0713C51.9798 39.8753 52.1598 39.7181 52.3057 39.5996C52.4515 39.4766 52.6292 39.3444 52.8389 39.2031C53.0531 39.0618 53.265 38.957 53.4746 38.8887C53.6888 38.8203 53.9076 38.7861 54.1309 38.7861C54.5775 38.7861 54.9102 38.8932 55.1289 39.1074C55.3477 39.3171 55.4844 39.6475 55.5391 40.0986C55.7715 39.889 55.9561 39.7272 56.0928 39.6133C56.234 39.4993 56.4163 39.3672 56.6396 39.2168C56.863 39.0664 57.0817 38.957 57.2959 38.8887C57.5101 38.8203 57.7288 38.7861 57.9521 38.7861C58.4671 38.7861 58.834 38.932 59.0527 39.2236C59.2715 39.5153 59.3854 39.971 59.3945 40.5908L59.4629 44.0635C59.4674 44.182 59.5016 44.2845 59.5654 44.3711C59.6338 44.4531 59.7295 44.5169 59.8525 44.5625C59.9756 44.6081 60.0781 44.6423 60.1602 44.665C60.2422 44.6833 60.3493 44.7015 60.4814 44.7197C60.5042 44.8337 60.5156 44.8952 60.5156 44.9043C60.5156 44.9271 60.5042 44.9727 60.4814 45.041C59.8936 45.0137 59.3535 45 58.8613 45C58.4238 45 57.9111 45.0137 57.3232 45.041C57.3005 44.9499 57.2891 44.8952 57.2891 44.877C57.2891 44.8633 57.3005 44.8109 57.3232 44.7197ZM62.0264 40.5088C62.0264 40.0075 62.2542 39.5951 62.71 39.2715C63.1702 38.9479 63.7126 38.7861 64.3369 38.7861C65.1025 38.7861 65.6403 38.9388 65.9502 39.2441C66.2646 39.5495 66.4219 40.0645 66.4219 40.7891V43.626C66.4219 43.8812 66.5153 44.0088 66.7021 44.0088C66.8525 44.0088 67.0439 43.8265 67.2764 43.4619C67.4404 43.4756 67.5521 43.5485 67.6113 43.6807C67.5794 43.7262 67.5247 43.8083 67.4473 43.9268C67.3698 44.0452 67.3128 44.1296 67.2764 44.1797C67.2399 44.2298 67.1829 44.3073 67.1055 44.4121C67.028 44.5124 66.9642 44.5876 66.9141 44.6377C66.8685 44.6878 66.8047 44.7471 66.7227 44.8154C66.6452 44.8838 66.5723 44.9362 66.5039 44.9727C66.4401 45.0046 66.3649 45.0319 66.2783 45.0547C66.1917 45.082 66.1051 45.0957 66.0186 45.0957C65.7907 45.0957 65.6016 45.0137 65.4512 44.8496C65.3053 44.6855 65.2188 44.4326 65.1914 44.0908C65.1868 44.0954 65.1162 44.1615 64.9795 44.2891C64.8428 44.4167 64.7471 44.5033 64.6924 44.5488C64.6423 44.5898 64.5443 44.665 64.3984 44.7744C64.2572 44.8792 64.1364 44.9544 64.0361 45C63.9359 45.0456 63.8105 45.0889 63.6602 45.1299C63.5098 45.1755 63.3617 45.1982 63.2158 45.1982C62.9834 45.1982 62.776 45.1663 62.5938 45.1025C62.416 45.0387 62.277 44.9613 62.1768 44.8701C62.0765 44.779 61.9945 44.6742 61.9307 44.5557C61.8669 44.4326 61.8236 44.321 61.8008 44.2207C61.7826 44.1204 61.7734 44.0202 61.7734 43.9199C61.7734 43.6146 61.8236 43.3571 61.9238 43.1475C62.0286 42.9378 62.2201 42.7419 62.498 42.5596C62.7806 42.3773 63.127 42.2155 63.5371 42.0742C63.9473 41.9329 64.4987 41.7734 65.1914 41.5957V40.6455C65.1914 40.1852 65.0889 39.8411 64.8838 39.6133C64.6833 39.3854 64.4121 39.2715 64.0703 39.2715C63.765 39.2715 63.5075 39.333 63.2979 39.4561C63.0928 39.5745 62.9674 39.7135 62.9219 39.873C63.3685 39.9414 63.5918 40.1852 63.5918 40.6045C63.5918 40.7959 63.5234 40.9645 63.3867 41.1104C63.25 41.2562 63.0586 41.3291 62.8125 41.3291C62.6074 41.3291 62.4251 41.2585 62.2656 41.1172C62.1061 40.9714 62.0264 40.7686 62.0264 40.5088ZM65.1914 43.4619V42.0332C64.7721 42.1289 64.4258 42.2337 64.1523 42.3477C63.8789 42.457 63.6693 42.5778 63.5234 42.71C63.3822 42.8421 63.2842 42.9788 63.2295 43.1201C63.1748 43.2568 63.1475 43.4163 63.1475 43.5986C63.1475 43.8265 63.2135 44.0065 63.3457 44.1387C63.4824 44.2663 63.6488 44.3301 63.8447 44.3301C64.3005 44.3301 64.7493 44.0407 65.1914 43.4619ZM72.1025 44.7197C72.1299 44.7744 72.1436 44.8314 72.1436 44.8906C72.1436 44.9362 72.1299 44.9863 72.1025 45.041C71.501 45.0137 70.9176 45 70.3525 45C69.7965 45 69.2178 45.0137 68.6162 45.041C68.598 44.9681 68.5889 44.918 68.5889 44.8906C68.5889 44.8678 68.598 44.8109 68.6162 44.7197C68.7666 44.7015 68.8896 44.6833 68.9854 44.665C69.0811 44.6423 69.1995 44.6081 69.3408 44.5625C69.4821 44.5169 69.5892 44.4531 69.6621 44.3711C69.735 44.2845 69.7738 44.182 69.7783 44.0635C69.7965 43.6123 69.8057 43.0654 69.8057 42.4229C69.8057 42.2087 69.8034 41.8441 69.7988 41.3291C69.7943 40.8141 69.792 40.363 69.792 39.9756C69.5322 39.8161 69.0947 39.7227 68.4795 39.6953C68.4613 39.6224 68.4521 39.5654 68.4521 39.5244C68.4521 39.4971 68.4613 39.4469 68.4795 39.374C69.3636 39.2829 70.1338 39.096 70.79 38.8135C70.904 38.859 70.9837 38.9183 71.0293 38.9912V40.0713C71.4714 39.6839 71.8952 39.374 72.3008 39.1416C72.7064 38.9046 73.1165 38.7861 73.5312 38.7861C74.0508 38.7861 74.4176 38.932 74.6318 39.2236C74.8506 39.5153 74.9645 39.971 74.9736 40.5908L75.042 44.0635C75.0465 44.182 75.0807 44.2845 75.1445 44.3711C75.2129 44.4531 75.3086 44.5169 75.4316 44.5625C75.5592 44.6081 75.6641 44.6423 75.7461 44.665C75.8281 44.6833 75.9352 44.7015 76.0674 44.7197C76.0856 44.8109 76.0947 44.8724 76.0947 44.9043C76.0947 44.9408 76.0856 44.9863 76.0674 45.041C75.4795 45.0137 74.9372 45 74.4404 45C73.9574 45 73.4219 45.0137 72.834 45.041C72.8158 44.9681 72.8066 44.9134 72.8066 44.877C72.8066 44.8451 72.8158 44.7926 72.834 44.7197C72.9525 44.7015 73.0505 44.6833 73.1279 44.665C73.21 44.6423 73.3011 44.6081 73.4014 44.5625C73.5062 44.5169 73.5837 44.4531 73.6338 44.3711C73.6885 44.2845 73.7158 44.182 73.7158 44.0635L73.7295 40.8164C73.7295 39.9915 73.4811 39.5791 72.9844 39.5791C72.5195 39.5791 71.8678 39.889 71.0293 40.5088C71.0293 41.835 71.0475 43.0199 71.084 44.0635C71.0885 44.182 71.1227 44.2845 71.1865 44.3711C71.2549 44.4531 71.3506 44.5169 71.4736 44.5625C71.5967 44.6081 71.6992 44.6423 71.7812 44.665C71.8633 44.6833 71.9704 44.7015 72.1025 44.7197ZM31.7432 51.8428C31.57 51.0088 31.251 50.3617 30.7861 49.9014C30.3258 49.4411 29.7721 49.2109 29.125 49.2109C28.4915 49.2109 27.9993 49.3613 27.6484 49.6621C27.3021 49.9629 27.1289 50.3639 27.1289 50.8652C27.1289 51.1432 27.154 51.3734 27.2041 51.5557C27.2542 51.738 27.3568 51.9157 27.5117 52.0889C27.6667 52.2575 27.8923 52.4079 28.1885 52.54C28.4847 52.6676 28.8721 52.7907 29.3506 52.9092C29.6104 52.973 29.8359 53.0322 30.0273 53.0869C30.2233 53.1416 30.4375 53.2168 30.6699 53.3125C30.9069 53.4082 31.1097 53.5107 31.2783 53.6201C31.4515 53.7295 31.6224 53.8662 31.791 54.0303C31.9642 54.1898 32.1032 54.3675 32.208 54.5635C32.3174 54.7594 32.404 54.9919 32.4678 55.2607C32.5361 55.5251 32.5703 55.8145 32.5703 56.1289C32.5703 56.5482 32.4928 56.9355 32.3379 57.291C32.1829 57.6419 31.9801 57.9382 31.7295 58.1797C31.4788 58.4212 31.1895 58.6263 30.8613 58.7949C30.5332 58.9635 30.2005 59.0866 29.8633 59.1641C29.526 59.2415 29.1911 59.2803 28.8584 59.2803C27.8467 59.2803 26.7689 59.0182 25.625 58.4941C25.6478 58.002 25.6592 57.6989 25.6592 57.585C25.6592 56.8421 25.5977 56.1016 25.4746 55.3633C25.5247 55.3314 25.5749 55.3154 25.625 55.3154C25.6888 55.3154 25.7458 55.3314 25.7959 55.3633C25.8916 55.9512 26.0488 56.4707 26.2676 56.9219C26.4909 57.373 26.7461 57.7308 27.0332 57.9951C27.3203 58.2549 27.6165 58.4508 27.9219 58.583C28.2318 58.7106 28.5439 58.7744 28.8584 58.7744C29.5739 58.7744 30.123 58.5898 30.5059 58.2207C30.8932 57.847 31.0869 57.3548 31.0869 56.7441C31.0869 56.1289 30.9434 55.6663 30.6562 55.3564C30.3737 55.042 29.8314 54.7868 29.0293 54.5908C28.0267 54.3402 27.2428 53.971 26.6777 53.4834C26.1172 52.9912 25.8369 52.3418 25.8369 51.5352C25.8369 51.1113 25.9053 50.7331 26.042 50.4004C26.1833 50.0632 26.3633 49.7943 26.582 49.5938C26.8053 49.3887 27.0651 49.2201 27.3613 49.0879C27.6576 48.9512 27.9492 48.8577 28.2363 48.8076C28.528 48.7529 28.8242 48.7256 29.125 48.7256C30.0273 48.7256 30.9661 48.9352 31.9414 49.3545C31.9141 49.6234 31.9004 49.9036 31.9004 50.1953C31.9004 50.8789 31.9551 51.4281 32.0645 51.8428C32.0052 51.8656 31.9551 51.877 31.9141 51.877C31.8685 51.877 31.8115 51.8656 31.7432 51.8428ZM32.9463 52.9365C33.5479 52.9639 34.1562 52.9775 34.7715 52.9775C35.332 52.9775 35.9062 52.9639 36.4941 52.9365C36.5124 53.0094 36.5215 53.0664 36.5215 53.1074C36.5215 53.1348 36.5124 53.1849 36.4941 53.2578C36.3574 53.2669 36.248 53.2783 36.166 53.292C36.084 53.3011 35.9769 53.3193 35.8447 53.3467C35.7171 53.374 35.6191 53.415 35.5508 53.4697C35.487 53.5244 35.4551 53.5905 35.4551 53.668C35.4551 53.709 35.4733 53.7933 35.5098 53.9209L36.8975 57.373H36.9385L38.2578 53.9209C38.3034 53.807 38.3262 53.709 38.3262 53.627C38.3262 53.4173 38.0641 53.2943 37.54 53.2578C37.5218 53.1849 37.5127 53.1348 37.5127 53.1074C37.5127 53.0664 37.5218 53.0094 37.54 52.9365C38.0732 52.9639 38.4059 52.9775 38.5381 52.9775C38.9209 52.9775 39.4062 52.9639 39.9941 52.9365C40.0124 52.9912 40.0215 53.0391 40.0215 53.0801C40.0215 53.1074 40.0124 53.1667 39.9941 53.2578C39.4245 53.2806 39.0553 53.5016 38.8867 53.9209L36.7744 58.9727H36.7881L36.0293 60.9619C35.7467 61.7002 35.4824 62.1992 35.2363 62.459C34.9948 62.7188 34.6849 62.8486 34.3066 62.8486C34.0013 62.8486 33.7461 62.7575 33.541 62.5752C33.3405 62.3929 33.2402 62.1536 33.2402 61.8574C33.2402 61.5885 33.3154 61.3766 33.4658 61.2217C33.6162 61.0667 33.8031 60.9893 34.0264 60.9893C34.2314 60.9893 34.3887 61.0508 34.498 61.1738C34.612 61.2969 34.6689 61.4359 34.6689 61.5908C34.6689 61.8096 34.571 61.9827 34.375 62.1104C34.3978 62.2106 34.473 62.2607 34.6006 62.2607C34.7464 62.2607 34.8831 62.1764 35.0107 62.0078C35.1383 61.8438 35.3047 61.4906 35.5098 60.9482L36.2686 59L34.1357 53.9209C34.0856 53.807 34.015 53.709 33.9238 53.627C33.8327 53.5404 33.721 53.4743 33.5889 53.4287C33.4613 53.3786 33.3542 53.3444 33.2676 53.3262C33.181 53.3034 33.0739 53.2806 32.9463 53.2578C32.9281 53.2214 32.9189 53.1712 32.9189 53.1074C32.9189 53.0391 32.9281 52.9821 32.9463 52.9365ZM42.9062 59.1982C42.6829 59.1982 42.4801 59.18 42.2979 59.1436C42.1201 59.1071 41.9811 59.0684 41.8809 59.0273C41.7852 58.9863 41.6553 58.9248 41.4912 58.8428C41.3135 58.8428 41.0514 58.9089 40.7051 59.041C40.6458 59.0046 40.6048 58.9635 40.582 58.918C40.6048 58.8451 40.6322 58.5967 40.6641 58.1729C40.7005 57.749 40.7188 57.3708 40.7188 57.0381C40.778 57.0107 40.8851 56.9971 41.04 56.9971C41.1221 57.2614 41.2064 57.487 41.293 57.6738C41.3841 57.8607 41.498 58.043 41.6348 58.2207C41.776 58.3939 41.9447 58.526 42.1406 58.6172C42.3411 58.7038 42.569 58.7471 42.8242 58.7471C43.2207 58.7471 43.5306 58.6445 43.7539 58.4395C43.9818 58.2344 44.0957 58.002 44.0957 57.7422C44.0957 57.5462 44.0638 57.3799 44 57.2432C43.9362 57.1064 43.7926 56.9629 43.5693 56.8125C43.3506 56.6576 43.0361 56.5049 42.626 56.3545C42.3708 56.2633 42.1543 56.179 41.9766 56.1016C41.7988 56.0241 41.6143 55.9284 41.4229 55.8145C41.236 55.7005 41.0856 55.5843 40.9717 55.4658C40.8577 55.3428 40.7643 55.1969 40.6914 55.0283C40.6185 54.8597 40.582 54.6751 40.582 54.4746C40.582 54.3288 40.598 54.1852 40.6299 54.0439C40.6663 53.8981 40.7324 53.7477 40.8281 53.5928C40.9284 53.4378 41.0514 53.3034 41.1973 53.1895C41.3477 53.071 41.5459 52.9753 41.792 52.9023C42.0426 52.8249 42.3252 52.7861 42.6396 52.7861C42.7673 52.7861 42.8789 52.793 42.9746 52.8066C43.0749 52.8203 43.1934 52.8454 43.3301 52.8818C43.4714 52.9137 43.5488 52.932 43.5625 52.9365C43.6628 52.9137 43.7653 52.8841 43.8701 52.8477C43.9795 52.8112 44.041 52.7907 44.0547 52.7861H44.2324C44.3418 53.4424 44.4831 54.0007 44.6562 54.4609C44.6016 54.5202 44.5127 54.5498 44.3896 54.5498C44.0114 54.0941 43.6878 53.7614 43.4189 53.5518C43.1546 53.3376 42.8538 53.2305 42.5166 53.2305C42.2523 53.2305 42.0199 53.2897 41.8193 53.4082C41.6188 53.5267 41.5186 53.7067 41.5186 53.9482C41.5186 54.2536 41.6393 54.4928 41.8809 54.666C42.127 54.8392 42.5804 55.0602 43.2412 55.3291C43.5465 55.4521 43.7858 55.5547 43.959 55.6367C44.1367 55.7188 44.3145 55.8167 44.4922 55.9307C44.6699 56.0446 44.7998 56.1631 44.8818 56.2861C44.9684 56.4046 45.0391 56.5482 45.0938 56.7168C45.1484 56.8854 45.1758 57.0814 45.1758 57.3047C45.1758 57.7878 44.9525 58.2253 44.5059 58.6172C44.0638 59.0046 43.5306 59.1982 42.9062 59.1982ZM48.3408 51.624C48.3864 51.6058 48.4388 51.5967 48.498 51.5967C48.5573 51.5967 48.6188 51.6058 48.6826 51.624V53.1211H50.7539C50.7812 53.1895 50.7949 53.2738 50.7949 53.374C50.7949 53.4606 50.7812 53.5404 50.7539 53.6133H48.6826V57.2637C48.6826 57.9837 49.013 58.3438 49.6738 58.3438C49.9245 58.3438 50.1387 58.2959 50.3164 58.2002C50.4987 58.1045 50.6992 57.9609 50.918 57.7695C51.0319 57.7832 51.1071 57.8379 51.1436 57.9336C50.943 58.2936 50.6468 58.5944 50.2549 58.8359C49.863 59.0775 49.4323 59.1982 48.9629 59.1982C47.86 59.1982 47.3086 58.5306 47.3086 57.1953V53.6133H46.4678C46.4495 53.5312 46.4404 53.4788 46.4404 53.4561C46.4404 53.4515 46.4495 53.3991 46.4678 53.2988C46.6865 53.1895 46.8529 53.1006 46.9668 53.0322C47.0853 52.9593 47.2334 52.8568 47.4111 52.7246C47.5934 52.5924 47.7575 52.4375 47.9033 52.2598C48.0537 52.0775 48.1995 51.8656 48.3408 51.624ZM57.2412 55.377H53.5156C53.4974 55.6504 53.4883 55.8919 53.4883 56.1016C53.502 56.7806 53.7002 57.3252 54.083 57.7354C54.4658 58.141 54.9785 58.3438 55.6211 58.3438C55.7943 58.3438 55.9561 58.3255 56.1064 58.2891C56.2568 58.248 56.3799 58.2025 56.4756 58.1523C56.5758 58.1022 56.6784 58.0293 56.7832 57.9336C56.888 57.8379 56.9632 57.7627 57.0088 57.708C57.0589 57.6488 57.125 57.5622 57.207 57.4482C57.2891 57.3298 57.3438 57.2546 57.3711 57.2227C57.4805 57.2454 57.5693 57.2956 57.6377 57.373C57.4098 57.9837 57.0566 58.4417 56.5781 58.7471C56.0996 59.0479 55.5801 59.1982 55.0195 59.1982C54.7415 59.1982 54.4704 59.1618 54.2061 59.0889C53.9463 59.0205 53.6934 58.9066 53.4473 58.7471C53.2012 58.5876 52.987 58.3916 52.8047 58.1592C52.6224 57.9222 52.4766 57.6283 52.3672 57.2773C52.2578 56.9219 52.2031 56.5299 52.2031 56.1016C52.2031 55.14 52.4971 54.347 53.085 53.7227C53.6729 53.0983 54.3952 52.7861 55.252 52.7861C55.6302 52.7861 55.9583 52.8408 56.2363 52.9502C56.5189 53.055 56.7376 53.1986 56.8926 53.3809C57.0521 53.5632 57.1683 53.7637 57.2412 53.9824C57.3187 54.1966 57.3574 54.4268 57.3574 54.6729C57.3574 54.9007 57.3187 55.1354 57.2412 55.377ZM55.0879 53.2305C54.7734 53.2305 54.4749 53.3695 54.1924 53.6475C53.9144 53.9255 53.7139 54.347 53.5908 54.9121H56.0518C56.0973 54.7389 56.1201 54.5885 56.1201 54.4609C56.1201 54.1055 56.0381 53.8115 55.874 53.5791C55.71 53.3467 55.4479 53.2305 55.0879 53.2305ZM66.8252 58.7197C66.9391 58.7015 67.0326 58.6833 67.1055 58.665C67.1829 58.6423 67.2673 58.6081 67.3584 58.5625C67.4495 58.5169 67.5179 58.4531 67.5635 58.3711C67.609 58.2845 67.6318 58.182 67.6318 58.0635L67.6455 54.8164C67.6455 53.9915 67.3994 53.5791 66.9072 53.5791C66.6611 53.5791 66.3945 53.6566 66.1074 53.8115C65.8203 53.9665 65.4762 54.1989 65.0752 54.5088V54.5908L65.1299 58.0635C65.1344 58.182 65.1686 58.2845 65.2324 58.3711C65.3008 58.4531 65.3965 58.5169 65.5195 58.5625C65.6426 58.6081 65.7451 58.6423 65.8271 58.665C65.9092 58.6833 66.0163 58.7015 66.1484 58.7197C66.1667 58.8109 66.1758 58.8724 66.1758 58.9043C66.1758 58.9408 66.1667 58.9863 66.1484 59.041C65.5605 59.0137 65.0251 59 64.542 59C64.0999 59 63.585 59.0137 62.9971 59.041C62.9788 58.9681 62.9697 58.9134 62.9697 58.877C62.9697 58.8451 62.9788 58.7926 62.9971 58.7197C63.111 58.7015 63.2067 58.6833 63.2842 58.665C63.3617 58.6423 63.446 58.6081 63.5371 58.5625C63.6283 58.5169 63.6966 58.4531 63.7422 58.3711C63.7878 58.2845 63.8105 58.182 63.8105 58.0635L63.8242 54.8164C63.8242 53.9915 63.5781 53.5791 63.0859 53.5791C62.8398 53.5791 62.5778 53.6543 62.2998 53.8047C62.0264 53.9551 61.6823 54.1852 61.2676 54.4951C61.2676 55.8304 61.2858 57.0199 61.3223 58.0635C61.3268 58.182 61.3587 58.2845 61.418 58.3711C61.4772 58.4531 61.5615 58.5169 61.6709 58.5625C61.7848 58.6081 61.8828 58.6423 61.9648 58.665C62.0469 58.6833 62.1494 58.7015 62.2725 58.7197C62.2998 58.7744 62.3135 58.8314 62.3135 58.8906C62.3135 58.9362 62.2998 58.9863 62.2725 59.041C61.6709 59.0137 61.1104 59 60.5908 59C60.0348 59 59.4561 59.0137 58.8545 59.041C58.8363 58.9681 58.8271 58.918 58.8271 58.8906C58.8271 58.8678 58.8363 58.8109 58.8545 58.7197C59.0049 58.7015 59.1279 58.6833 59.2236 58.665C59.3193 58.6423 59.4378 58.6081 59.5791 58.5625C59.7204 58.5169 59.8275 58.4531 59.9004 58.3711C59.9733 58.2845 60.012 58.182 60.0166 58.0635C60.0348 57.6123 60.0439 57.0654 60.0439 56.4229C60.0439 56.2087 60.0417 55.8441 60.0371 55.3291C60.0326 54.8141 60.0303 54.363 60.0303 53.9756C59.7705 53.8161 59.333 53.7227 58.7178 53.6953C58.6995 53.6224 58.6904 53.5654 58.6904 53.5244C58.6904 53.4971 58.6995 53.4469 58.7178 53.374C59.6019 53.2829 60.3721 53.096 61.0283 52.8135C61.1423 52.859 61.222 52.9183 61.2676 52.9912V54.0713C61.4818 53.8753 61.6618 53.7181 61.8076 53.5996C61.9535 53.4766 62.1312 53.3444 62.3408 53.2031C62.555 53.0618 62.7669 52.957 62.9766 52.8887C63.1908 52.8203 63.4095 52.7861 63.6328 52.7861C64.0794 52.7861 64.4121 52.8932 64.6309 53.1074C64.8496 53.3171 64.9863 53.6475 65.041 54.0986C65.2734 53.889 65.458 53.7272 65.5947 53.6133C65.736 53.4993 65.9183 53.3672 66.1416 53.2168C66.3649 53.0664 66.5837 52.957 66.7979 52.8887C67.012 52.8203 67.2308 52.7861 67.4541 52.7861C67.9691 52.7861 68.3359 52.932 68.5547 53.2236C68.7734 53.5153 68.8874 53.971 68.8965 54.5908L68.9648 58.0635C68.9694 58.182 69.0036 58.2845 69.0674 58.3711C69.1357 58.4531 69.2314 58.5169 69.3545 58.5625C69.4775 58.6081 69.5801 58.6423 69.6621 58.665C69.7441 58.6833 69.8512 58.7015 69.9834 58.7197C70.0062 58.8337 70.0176 58.8952 70.0176 58.9043C70.0176 58.9271 70.0062 58.9727 69.9834 59.041C69.3955 59.0137 68.8555 59 68.3633 59C67.9258 59 67.4131 59.0137 66.8252 59.041C66.8024 58.9499 66.791 58.8952 66.791 58.877C66.791 58.8633 66.8024 58.8109 66.8252 58.7197Z" fill="#F9ECEC"/>
</g>
<path d="M48.5 75L27.2824 66H69.7176L48.5 75Z" fill="#D9D9D9"/>
</g>
<defs>
<filter id="filter0_d_505_36" x="14.3906" y="34.6094" width="66.7041" height="43.2393" filterUnits="userSpaceOnUse" color-interpolation-filters="sRGB">
<feFlood flood-opacity="0" result="BackgroundImageFix"/>
<feColorMatrix in="SourceAlpha" type="matrix" values="0 0 0 0 0 0 0 0 0 0 0 0 0 0 0 0 0 0 127 0" result="hardAlpha"/>
<feOffset dy="10"/>
<feGaussianBlur stdDeviation="2.5"/>
<feComposite in2="hardAlpha" operator="out"/>
<feColorMatrix type="matrix" values="0 0 0 0 0 0 0 0 0 0 0 0 0 0 0 0 0 0 0.3 0"/>
<feBlend mode="normal" in2="BackgroundImageFix" result="effect1_dropShadow_505_36"/>
<feBlend mode="normal" in="SourceGraphic" in2="effect1_dropShadow_505_36" result="shape"/>
</filter>
<linearGradient id="paint0_linear_505_36" x1="49" y1="0" x2="49" y2="98" gradientUnits="userSpaceOnUse">
<stop stop-color="#0123E7"/>
<stop offset="1" stop-color="#171716"/>
</linearGradient>
<linearGradient id="paint1_linear_505_36" x1="48.5" y1="9" x2="48.5" y2="89" gradientUnits="userSpaceOnUse">
<stop stop-color="#171716"/>
<stop offset="0.989664" stop-color="#0123E7" stop-opacity="0.01"/>
</linearGradient>
<clipPath id="clip0_505_36">
<rect width="98" height="98" rx="49" fill="white"/>
</clipPath>
</defs>
</svg>
